<svg xml:space="preserve" viewBox="0 0 100 100" y="0" x="0" xmlns="http://www.w3.org/2000/svg" id="圖層_1" version="1.1" style="height: 100%; width: 100%; background: rgb(241, 242, 243);" width="200px" height="200px"><g class="ldl-scale" style="transform-origin: 50% 50%; transform: rotate(0deg) scale(0.8, 0.8);"><g class="ldl-ani"><g class="ldl-layer"><g class="ldl-ani" style="transform: scale(0.91); transform-origin: 50px 50px; animation: 1.11111s linear -0.740741s infinite normal forwards running breath-fa20fec6-41fa-4035-944e-84f5d987305d;"><path fill="#666" d="M71.9 7.5v4.6c4.7 0 7 3 7 9.3v64.4c0 1.1-.9 2-2 2s-2-.9-2-2V51.2c0-4.5-3.6-8.1-8.1-8.1h-7.5v4.6h7.5c1.9 0 3.5 1.6 3.5 3.5v34.7c0 3.7 3 6.6 6.6 6.6s6.6-3 6.6-6.6V21.4c.1-12.5-8.1-13.9-11.6-13.9z" style="fill: rgb(104, 156, 197);"></path></g></g><g class="ldl-layer"><g class="ldl-ani" style="transform: scale(0.91); transform-origin: 50px 50px; animation: 1.11111s linear -0.925926s infinite normal forwards running breath-fa20fec6-41fa-4035-944e-84f5d987305d;"><path fill="#333" d="M60.6 92.5H21.1c-2.5 0-4.6-2.1-4.6-4.6V14.3c0-3.8 3.1-6.8 6.8-6.8h35.1c3.8 0 6.8 3.1 6.8 6.8v73.5c0 2.6-2.1 4.7-4.6 4.7z" style="fill: rgb(94, 111, 163);"></path></g></g><g class="ldl-layer"><g class="ldl-ani" style="transform: scale(0.91); transform-origin: 50px 50px; animation: 1.11111s linear -1.11111s infinite normal forwards running breath-fa20fec6-41fa-4035-944e-84f5d987305d;"><path fill="#e0e0e0" d="M59.3 41.9h-37V17.2c0-2 1.6-3.7 3.7-3.7h29.7c2 0 3.7 1.6 3.7 3.7v24.7z" style="fill: rgb(147, 219, 233);"></path></g></g><metadata xmlns:d="https://loading.io/stock/"><d:name>gas station</d:name><d:tags>gas tank,fuel,pump nozzle,gasoline,diesel,gas station,transportation</d:tags><d:license>by</d:license><d:slug>9cz0i6</d:slug></metadata></g></g></svg>